<?xml version="1.0" encoding="UTF-8"?>
<!DOCTYPE svg PUBLIC "-//W3C//DTD SVG 1.1//EN" "http://www.w3.org/Graphics/SVG/1.1/DTD/svg11.dtd">
<!-- Creator: CorelDRAW 2020 (64-Bit) -->
<svg xmlns="http://www.w3.org/2000/svg" xml:space="preserve" width="210mm" height="297mm" version="1.1" style="shape-rendering:geometricPrecision; text-rendering:geometricPrecision; image-rendering:optimizeQuality; fill-rule:evenodd; clip-rule:evenodd"
viewBox="0 0 21000 29700"
 xmlns:xlink="http://www.w3.org/1999/xlink"
 xmlns:xodm="http://www.corel.com/coreldraw/odm/2003">
 <defs>
  <style type="text/css">
   <![CDATA[
    .fil1 {fill:#2B2A29;fill-rule:nonzero}
    .fil0 {fill:#F39519;fill-rule:nonzero}
   ]]>
  </style>
 </defs>
 <g id="Layer_x0020_1">
  <metadata id="CorelCorpID_0Corel-Layer"/>
  <g id="_2438999655760">
   <g>
    <path class="fil0" d="M8327.87 17714.52l3840.74 0c-78.64,-246.47 -231.31,-364.65 -494.51,-368.98 -824.25,-13.62 -1648.66,-20.41 -2473.06,-29.72 -477.07,-5.42 -834.86,-223.95 -1044.88,-643.37 -204.71,-408.88 -177.71,-824.33 78.49,-1212.06 410.89,-621.73 830.47,-1237.75 1235.73,-1863.17 224.18,-345.97 270.65,-736.01 101.87,-1107.45 -221.41,-487.23 -510.9,-1051.67 -851.73,-1731.26 -45.53,-90.77 -171.95,-99.79 -229.66,-16.16 -0.37,0.49 -0.72,1 -1.09,1.57 -716.46,1039.21 -1438.26,2074.87 -2144.77,3120.84 -158.79,235.2 -297.11,495.31 -388.3,763.14 -504.99,1483.51 572.01,3036.18 2136.18,3080.93 78.35,2.23 156.64,3.97 234.99,5.69z"/>
    <path class="fil0" d="M15167.84 17604.91c-9.82,67.97 -71.87,96.25 -132.76,108.01l-1703.57 0c-164.58,-0.71 -327.99,-10.61 -482.84,-71.07 -0.35,-0.35 -1.14,-0.35 -1.51,-0.8 -366.96,-144.94 -571.64,-528.42 -745.67,-882.76 -1006.58,-2044.55 -2029.98,-4080.81 -3070.75,-6108.39 -25.92,-50.72 -32.56,-110.4 -11.78,-163.49 22,-54.98 59.31,-68.7 99.01,-72.67l1709.83 0c258.09,7.51 509.9,46.41 721.66,219.64 219.27,179.51 353.17,439.97 480.87,693.01 217.7,430.23 435.74,860.03 653.78,1289.84 218.02,430.17 435.64,859.98 653.33,1290.15 217.67,430.24 435.29,860.39 651.81,1290.99 389.68,773.98 775.9,1549.88 1162.86,2325.43 12.56,25.11 20.04,53.83 15.73,82.11z"/>
   </g>
   <path class="fil1" d="M7543.67 18629.54l-305.51 0 -35.08 173.37 277.88 0 -28.55 139.97 -277.14 0 -36.58 182.15 318.76 0 -29.11 144.82 -480 0 156.95 -784.01 467.49 0 -29.11 143.7zm462.65 175.61l-172.26 0c-30.98,153.41 -46.47,235.52 -46.47,246.54 0,24.07 7.28,42.55 22.02,55.24 14.93,12.69 36.21,19.03 64.39,19.03l69.98 0 -29.11 144.45 -87.9 0c-62.33,0 -111.04,-16.24 -146.31,-48.34 -35.09,-32.28 -52.82,-76.51 -52.82,-132.69 0,-14.93 2.24,-34.52 6.35,-58.78 4.29,-24.26 15.49,-81.37 33.59,-171.32 4.85,-23.33 8.4,-41.44 11.01,-54.13l-111.6 0 6.53 -32.84 290.95 -264.64 30.05 0 -31.73 157.52 171.13 0 -27.8 139.96zm479.63 -156.39c57.85,0 103.39,17.17 136.61,51.32 33.22,34.34 49.82,80.44 49.82,138.29 0,5.98 -0.18,11.57 -0.56,17.36 -0.37,5.6 -0.93,11.57 -1.67,17.92 -0.75,6.53 -2.24,15.3 -4.48,26.87 -2.06,11.57 -4.3,23.14 -6.54,35.27 -2.05,11.95 -5.59,29.49 -10.26,52.44 -4.85,22.96 -9.52,45.91 -14,68.68 -4.66,22.77 -10.82,53.94 -18.66,93.69 -7.84,39.75 -15.68,79.5 -23.7,119.25l-155.83 0c10.82,-54.31 23.89,-118.88 38.82,-193.53 16.42,-82.12 26.31,-132.5 29.67,-151.54 3.54,-18.85 5.22,-33.41 5.22,-43.67 0,-57.67 -29.86,-86.41 -89.58,-86.41 -43.48,0 -80.8,14.75 -112.34,44.05 -31.54,29.3 -52.45,69.23 -62.71,119.44l-62.33 311.66 -155.83 0 164.6 -822.27 155.83 0 -53.56 268.93c56.55,-45.17 120.37,-67.75 191.48,-67.75zm389.3 -67.74l30.05 -146.13 164.04 0 -30.23 146.13 -163.86 0zm-131.38 688.83l120.93 -604.66 155.83 0 -120.93 604.66 -155.83 0zm808.83 -50.02c-61.02,44.23 -130.82,66.44 -209.58,66.44 -78.75,0 -143.14,-25.75 -192.97,-77.07 -50.01,-51.51 -75.02,-115.71 -75.02,-192.97 0,-66.07 16.79,-127.28 50.01,-183.46 33.41,-56.36 78.76,-101.15 135.87,-134.37 57.29,-33.03 119.44,-49.64 186.62,-49.64 76.15,0 138.48,23.14 187.19,69.43 48.71,46.28 74.46,104.51 77.26,174.86l-155.27 0c-8.59,-31.35 -24.08,-55.42 -46.1,-72.59 -22.02,-17.17 -49.64,-25.76 -82.86,-25.76 -51.7,0 -97.23,21.65 -136.05,65.13 -39,43.3 -58.6,92.57 -58.6,147.63 0,39.75 11.76,71.66 35.27,96.11 23.52,24.45 54.68,36.76 93.31,36.76 34.16,0 65.88,-9.14 95,-27.43 29.3,-18.1 53.93,-44.05 74.46,-77.64l156.95 0c-29.3,78.76 -74.28,140.34 -135.49,184.57zm410.39 66.44c-64.57,0 -117.39,-16.23 -158.26,-48.33 -41.06,-32.29 -61.59,-75.21 -61.59,-128.77 0,-12.51 1.12,-24.83 3.36,-37.33l150.24 0c-1.12,5.6 -1.5,10.83 -1.5,15.86 0,22.03 8.4,38.82 25.38,50.95 16.99,11.95 38.82,18.11 65.88,18.11 29.12,0 54.31,-6.91 75.77,-20.53 21.28,-13.81 31.91,-32.48 31.91,-56.18 0,-7.65 -2.05,-14.55 -6.34,-20.71 -4.11,-6.16 -9.14,-11.2 -14.74,-15.12 -5.6,-3.73 -14,-7.46 -25.2,-10.82 -11.01,-3.55 -20.71,-6.16 -29.11,-8.03 -8.4,-1.68 -20.16,-3.92 -35.09,-6.53 -15.67,-2.8 -27.99,-5.41 -36.95,-7.28 -8.77,-2.05 -20.71,-5.22 -35.46,-9.33 -14.74,-4.29 -26.5,-8.4 -35.27,-12.5 -8.77,-4.3 -18.66,-10.08 -29.49,-17.55 -11.01,-7.46 -19.41,-15.67 -25.19,-24.44 -5.79,-8.59 -10.83,-19.41 -14.93,-31.92 -4.29,-12.5 -6.35,-26.31 -6.35,-41.24 0,-69.99 25.94,-125.23 77.83,-165.35 52.06,-40.31 117.94,-60.47 197.63,-60.47 64.2,0 115.52,15.68 153.97,47.03 38.44,31.35 57.67,71.48 57.67,120.19 0,10.26 -1.12,21.27 -3.18,32.84l-146.12 0c0,-1.12 0.18,-2.61 0.56,-4.66 0.37,-2.05 0.74,-3.73 0.93,-5.41 0.18,-1.68 0.18,-3.18 0.18,-4.67 0,-19.59 -7.27,-34.71 -22.2,-45.16 -14.75,-10.27 -35.28,-15.49 -61.96,-15.49 -29.49,0 -53.94,6.53 -72.97,19.97 -19.23,13.25 -28.74,30.23 -28.74,51.13 0,7.65 2.05,14.37 6.34,20.16 4.11,5.78 9.15,10.63 14.93,14.55 5.97,3.74 14.37,7.47 25.57,10.83 11.01,3.54 20.71,6.16 29.11,7.65 8.4,1.68 20.16,3.92 35.09,6.9 13.81,2.62 24.63,4.67 32.47,6.35 7.84,1.49 18.48,4.11 31.73,7.28 13.25,3.36 23.89,6.72 31.91,10.08 8.02,3.54 17.54,7.83 28.18,13.25 10.82,5.22 19.41,11.19 25.75,17.91 6.35,6.91 12.7,14.56 18.85,22.96 6.16,8.58 10.64,18.66 13.44,29.86 2.61,11.38 4.11,23.7 4.11,37.14 0,73.71 -27.06,131.57 -81.19,173.56 -54.12,42.17 -123.17,63.26 -206.96,63.26zm1475.65 -800.43l164.6 0 -34.53 784.01 -160.68 0 25.75 -517.32 -341.33 513.4 -38.82 0 -134.37 -515.46 -187.56 519.38 -167.96 0 280.49 -784.01 158.64 0 121.3 481.12 314.47 -481.12zm857.72 179.35l120.93 0 -120.93 604.66 -115.33 0 -3.74 -56.36c-61.95,48.52 -131.94,72.78 -209.95,72.78 -79.5,0 -144.26,-25.56 -194.46,-76.51 -50.02,-51.14 -75.21,-115.34 -75.21,-192.97 0,-66.07 16.23,-127.28 48.52,-183.83 32.29,-56.55 76.52,-101.34 132.88,-134.56 56.17,-33.03 118.13,-49.64 185.5,-49.64 40.87,0 78.2,7.84 111.79,23.52 33.78,15.67 62.15,37.7 85.1,66.06l34.9 -73.15zm-300.09 474.02c54.68,0 102.46,-21.27 143.33,-63.45 40.68,-42.36 61.21,-91.26 61.21,-147.06 0,-40.12 -13.06,-72.41 -38.82,-97.05 -25.94,-24.63 -60.28,-36.95 -102.83,-36.95 -54.31,0 -101.71,21.09 -142.21,63.46 -40.49,42.36 -60.65,91.44 -60.65,147.62 0,40.12 12.69,72.41 38.26,96.85 25.57,24.27 59.34,36.58 101.71,36.58zm916.89 -334.06l-172.26 0c-30.98,153.41 -46.47,235.52 -46.47,246.54 0,24.07 7.28,42.55 22.02,55.24 14.93,12.69 36.21,19.03 64.39,19.03l69.98 0 -29.11 144.45 -87.9 0c-62.33,0 -111.04,-16.24 -146.31,-48.34 -35.09,-32.28 -52.82,-76.51 -52.82,-132.69 0,-14.93 2.24,-34.52 6.35,-58.78 4.29,-24.26 15.49,-81.37 33.59,-171.32 4.85,-23.33 8.4,-41.44 11.01,-54.13l-111.6 0 6.53 -32.84 290.95 -264.64 30.05 0 -31.73 157.52 171.13 0 -27.8 139.96zm477.95 0l-172.26 0c-30.98,153.41 -46.47,235.52 -46.47,246.54 0,24.07 7.28,42.55 22.02,55.24 14.93,12.69 36.21,19.03 64.39,19.03l69.98 0 -29.11 144.45 -87.9 0c-62.33,0 -111.04,-16.24 -146.31,-48.34 -35.09,-32.28 -52.82,-76.51 -52.82,-132.69 0,-14.93 2.24,-34.52 6.35,-58.78 4.29,-24.26 15.49,-81.37 33.59,-171.32 4.85,-23.33 8.4,-41.44 11.01,-54.13l-111.6 0 6.53 -32.84 290.95 -264.64 30.05 0 -31.73 157.52 171.13 0 -27.8 139.96zm648.89 207.72l-469.17 0 0 7.65c0,41.24 11.38,72.6 34.15,94.24 22.96,21.84 55.62,32.66 98.17,32.66 30.23,0 58.6,-6.53 85.1,-19.78 26.31,-13.06 48.15,-31.35 65.32,-54.68l167.21 0c-34.9,67.93 -81.55,120.37 -139.97,157.51 -58.22,37.14 -123.73,55.8 -196.14,55.8 -76.89,0 -139.78,-25.56 -188.68,-76.51 -48.89,-51.14 -73.34,-114.96 -73.34,-191.48 0,-66.63 15.49,-128.21 46.28,-184.39 30.79,-56.36 74.09,-101.33 130.08,-134.93 55.99,-33.4 118.51,-50.2 187.37,-50.2 51.7,0 98.17,11.95 139.41,35.83 41.06,23.89 72.78,55.99 94.99,96.49 22.4,40.5 33.41,85.29 33.41,134.56 0.37,30.23 -4.29,62.52 -14.19,97.23zm-265.19 -230.67c-39.38,0 -74.46,11.01 -105.44,33.03 -30.98,22.02 -55.06,51.32 -72.23,87.72l310.55 0c-3.74,-39.01 -16.99,-68.87 -39.94,-89.58 -22.96,-20.91 -53.94,-31.17 -92.94,-31.17zm759.37 -120.37l53.75 0 -29.67 147.06 -69.99 0c-44.79,0 -79.87,10.45 -105.25,31.54 -25.2,20.9 -43.49,54.3 -54.31,100.21l-66.25 329.21 -155.83 0 120.93 -604.66 101.15 0 11.38 70.54c53,-49.27 117.58,-73.9 194.09,-73.9zm242.24 624.44c-64.57,0 -117.39,-16.23 -158.26,-48.33 -41.06,-32.29 -61.59,-75.21 -61.59,-128.77 0,-12.51 1.12,-24.83 3.36,-37.33l150.24 0c-1.12,5.6 -1.5,10.83 -1.5,15.86 0,22.03 8.4,38.82 25.38,50.95 16.99,11.95 38.82,18.11 65.88,18.11 29.12,0 54.31,-6.91 75.77,-20.53 21.28,-13.81 31.91,-32.48 31.91,-56.18 0,-7.65 -2.05,-14.55 -6.34,-20.71 -4.11,-6.16 -9.14,-11.2 -14.74,-15.12 -5.6,-3.73 -14,-7.46 -25.2,-10.82 -11.01,-3.55 -20.71,-6.16 -29.11,-8.03 -8.4,-1.68 -20.16,-3.92 -35.09,-6.53 -15.67,-2.8 -27.99,-5.41 -36.95,-7.28 -8.77,-2.05 -20.71,-5.22 -35.46,-9.33 -14.74,-4.29 -26.5,-8.4 -35.27,-12.5 -8.77,-4.3 -18.66,-10.08 -29.49,-17.55 -11.01,-7.46 -19.41,-15.67 -25.19,-24.44 -5.79,-8.59 -10.83,-19.41 -14.93,-31.92 -4.29,-12.5 -6.35,-26.31 -6.35,-41.24 0,-69.99 25.94,-125.23 77.83,-165.35 52.06,-40.31 117.94,-60.47 197.63,-60.47 64.2,0 115.52,15.68 153.97,47.03 38.44,31.35 57.67,71.48 57.67,120.19 0,10.26 -1.12,21.27 -3.18,32.84l-146.12 0c0,-1.12 0.18,-2.61 0.56,-4.66 0.37,-2.05 0.74,-3.73 0.93,-5.41 0.18,-1.68 0.18,-3.18 0.18,-4.67 0,-19.59 -7.27,-34.71 -22.2,-45.16 -14.75,-10.27 -35.28,-15.49 -61.96,-15.49 -29.49,0 -53.94,6.53 -72.97,19.97 -19.23,13.25 -28.74,30.23 -28.74,51.13 0,7.65 2.05,14.37 6.34,20.16 4.11,5.78 9.15,10.63 14.93,14.55 5.97,3.74 14.37,7.47 25.57,10.83 11.01,3.54 20.71,6.16 29.11,7.65 8.4,1.68 20.16,3.92 35.09,6.9 13.81,2.62 24.63,4.67 32.47,6.35 7.84,1.49 18.48,4.11 31.73,7.28 13.25,3.36 23.89,6.72 31.91,10.08 8.02,3.54 17.54,7.83 28.18,13.25 10.82,5.22 19.41,11.19 25.75,17.91 6.35,6.91 12.7,14.56 18.85,22.96 6.16,8.58 10.64,18.66 13.44,29.86 2.61,11.38 4.11,23.7 4.11,37.14 0,73.71 -27.06,131.57 -81.19,173.56 -54.12,42.17 -123.17,63.26 -206.96,63.26z"/>
  </g>
 </g>
</svg>
